<mxfile host="app.diagrams.net" modified="2024-07-08T22:29:52.205Z" agent="Mozilla/5.0 (Windows NT 10.0; Win64; x64) AppleWebKit/537.36 (KHTML, like Gecko) Chrome/126.0.0.0 Safari/537.36" etag="yfZyt7Dt2FoAvIvAflMW" version="24.6.4" type="google">
  <diagram name="PÃ¡gina-1" id="Iy9J-WnIO2679uIVeEsD">
    <mxGraphModel grid="1" page="1" gridSize="10" guides="1" tooltips="1" connect="1" arrows="1" fold="1" pageScale="1" pageWidth="827" pageHeight="1169" math="0" shadow="0">
      <root>
        <mxCell id="0" />
        <mxCell id="1" parent="0" />
        <mxCell id="54UD-RVLt9mnvPX_JSWr-1" style="edgeStyle=orthogonalEdgeStyle;rounded=0;orthogonalLoop=1;jettySize=auto;html=1;" edge="1" parent="1" source="54UD-RVLt9mnvPX_JSWr-3" target="54UD-RVLt9mnvPX_JSWr-11">
          <mxGeometry relative="1" as="geometry" />
        </mxCell>
        <mxCell id="54UD-RVLt9mnvPX_JSWr-2" style="edgeStyle=orthogonalEdgeStyle;rounded=0;orthogonalLoop=1;jettySize=auto;html=1;" edge="1" parent="1" source="54UD-RVLt9mnvPX_JSWr-3" target="54UD-RVLt9mnvPX_JSWr-17">
          <mxGeometry relative="1" as="geometry" />
        </mxCell>
        <mxCell id="54UD-RVLt9mnvPX_JSWr-3" value="Paquetes" style="rounded=0;whiteSpace=wrap;html=1;fillColor=none;" vertex="1" parent="1">
          <mxGeometry x="67" y="370" width="120" height="60" as="geometry" />
        </mxCell>
        <mxCell id="54UD-RVLt9mnvPX_JSWr-4" style="edgeStyle=orthogonalEdgeStyle;rounded=0;orthogonalLoop=1;jettySize=auto;html=1;entryX=1;entryY=0.5;entryDx=0;entryDy=0;" edge="1" parent="1" source="54UD-RVLt9mnvPX_JSWr-5" target="54UD-RVLt9mnvPX_JSWr-11">
          <mxGeometry relative="1" as="geometry" />
        </mxCell>
        <mxCell id="54UD-RVLt9mnvPX_JSWr-5" value="Destinatarios" style="rounded=0;whiteSpace=wrap;html=1;" vertex="1" parent="1">
          <mxGeometry x="367" y="370" width="120" height="60" as="geometry" />
        </mxCell>
        <mxCell id="54UD-RVLt9mnvPX_JSWr-6" value="nombre" style="ellipse;whiteSpace=wrap;html=1;" vertex="1" parent="1">
          <mxGeometry x="547" y="390" width="100" height="50" as="geometry" />
        </mxCell>
        <mxCell id="54UD-RVLt9mnvPX_JSWr-7" value="apellido" style="ellipse;whiteSpace=wrap;html=1;" vertex="1" parent="1">
          <mxGeometry x="537" y="320" width="100" height="50" as="geometry" />
        </mxCell>
        <mxCell id="54UD-RVLt9mnvPX_JSWr-8" value="&lt;u&gt;CC&lt;/u&gt;" style="ellipse;whiteSpace=wrap;html=1;" vertex="1" parent="1">
          <mxGeometry x="517" y="250" width="100" height="50" as="geometry" />
        </mxCell>
        <mxCell id="54UD-RVLt9mnvPX_JSWr-9" value="direccion" style="ellipse;whiteSpace=wrap;html=1;" vertex="1" parent="1">
          <mxGeometry x="547" y="460" width="100" height="50" as="geometry" />
        </mxCell>
        <mxCell id="54UD-RVLt9mnvPX_JSWr-11" value="Compra" style="rhombus;whiteSpace=wrap;html=1;" vertex="1" parent="1">
          <mxGeometry x="240" y="366" width="68" height="68" as="geometry" />
        </mxCell>
        <mxCell id="54UD-RVLt9mnvPX_JSWr-12" value="&lt;u&gt;codigo_paquete&lt;/u&gt;" style="ellipse;whiteSpace=wrap;html=1;" vertex="1" parent="1">
          <mxGeometry x="-3" y="270" width="100" height="50" as="geometry" />
        </mxCell>
        <mxCell id="54UD-RVLt9mnvPX_JSWr-13" value="descripcion" style="ellipse;whiteSpace=wrap;html=1;" vertex="1" parent="1">
          <mxGeometry x="-70" y="320" width="100" height="50" as="geometry" />
        </mxCell>
        <mxCell id="54UD-RVLt9mnvPX_JSWr-14" value="destinatario" style="ellipse;whiteSpace=wrap;html=1;" vertex="1" parent="1">
          <mxGeometry x="-80" y="390" width="100" height="50" as="geometry" />
        </mxCell>
        <mxCell id="54UD-RVLt9mnvPX_JSWr-51" style="edgeStyle=orthogonalEdgeStyle;rounded=0;orthogonalLoop=1;jettySize=auto;html=1;entryX=1;entryY=0.5;entryDx=0;entryDy=0;" edge="1" parent="1" source="54UD-RVLt9mnvPX_JSWr-15" target="54UD-RVLt9mnvPX_JSWr-50">
          <mxGeometry relative="1" as="geometry" />
        </mxCell>
        <mxCell id="54UD-RVLt9mnvPX_JSWr-15" value="Camioneros" style="rounded=0;whiteSpace=wrap;html=1;" vertex="1" parent="1">
          <mxGeometry x="214" y="590" width="120" height="60" as="geometry" />
        </mxCell>
        <mxCell id="54UD-RVLt9mnvPX_JSWr-16" style="edgeStyle=orthogonalEdgeStyle;rounded=0;orthogonalLoop=1;jettySize=auto;html=1;entryX=0.25;entryY=0;entryDx=0;entryDy=0;" edge="1" parent="1" source="54UD-RVLt9mnvPX_JSWr-17" target="54UD-RVLt9mnvPX_JSWr-15">
          <mxGeometry relative="1" as="geometry" />
        </mxCell>
        <mxCell id="54UD-RVLt9mnvPX_JSWr-17" value="Distribuye" style="rhombus;whiteSpace=wrap;html=1;" vertex="1" parent="1">
          <mxGeometry x="88.5" y="470" width="77" height="80" as="geometry" />
        </mxCell>
        <mxCell id="54UD-RVLt9mnvPX_JSWr-18" value="&lt;u&gt;DNI&lt;/u&gt;" style="ellipse;whiteSpace=wrap;html=1;" vertex="1" parent="1">
          <mxGeometry x="67" y="680" width="100" height="50" as="geometry" />
        </mxCell>
        <mxCell id="54UD-RVLt9mnvPX_JSWr-19" value="nombre" style="ellipse;whiteSpace=wrap;html=1;" vertex="1" parent="1">
          <mxGeometry x="165.5" y="710" width="89" height="50" as="geometry" />
        </mxCell>
        <mxCell id="54UD-RVLt9mnvPX_JSWr-20" value="telefono" style="ellipse;whiteSpace=wrap;html=1;" vertex="1" parent="1">
          <mxGeometry x="267" y="720" width="100" height="50" as="geometry" />
        </mxCell>
        <mxCell id="54UD-RVLt9mnvPX_JSWr-21" value="" style="endArrow=classic;html=1;rounded=0;exitX=1;exitY=0.5;exitDx=0;exitDy=0;entryX=0;entryY=0.75;entryDx=0;entryDy=0;" edge="1" parent="1" source="54UD-RVLt9mnvPX_JSWr-14" target="54UD-RVLt9mnvPX_JSWr-3">
          <mxGeometry width="50" height="50" relative="1" as="geometry">
            <mxPoint x="-10" y="580" as="sourcePoint" />
            <mxPoint x="40" y="530" as="targetPoint" />
          </mxGeometry>
        </mxCell>
        <mxCell id="54UD-RVLt9mnvPX_JSWr-22" value="" style="endArrow=classic;html=1;rounded=0;exitX=1;exitY=0.5;exitDx=0;exitDy=0;entryX=0;entryY=0.25;entryDx=0;entryDy=0;" edge="1" parent="1" source="54UD-RVLt9mnvPX_JSWr-13" target="54UD-RVLt9mnvPX_JSWr-3">
          <mxGeometry width="50" height="50" relative="1" as="geometry">
            <mxPoint x="30" y="425" as="sourcePoint" />
            <mxPoint x="77" y="425" as="targetPoint" />
          </mxGeometry>
        </mxCell>
        <mxCell id="54UD-RVLt9mnvPX_JSWr-23" value="" style="endArrow=classic;html=1;rounded=0;exitX=0.5;exitY=1;exitDx=0;exitDy=0;entryX=0.25;entryY=0;entryDx=0;entryDy=0;" edge="1" parent="1" source="54UD-RVLt9mnvPX_JSWr-12" target="54UD-RVLt9mnvPX_JSWr-3">
          <mxGeometry width="50" height="50" relative="1" as="geometry">
            <mxPoint x="50" y="365" as="sourcePoint" />
            <mxPoint x="77" y="410" as="targetPoint" />
          </mxGeometry>
        </mxCell>
        <mxCell id="54UD-RVLt9mnvPX_JSWr-24" value="" style="endArrow=classic;html=1;rounded=0;exitX=0;exitY=0.5;exitDx=0;exitDy=0;entryX=0.75;entryY=0;entryDx=0;entryDy=0;" edge="1" parent="1" source="54UD-RVLt9mnvPX_JSWr-8" target="54UD-RVLt9mnvPX_JSWr-5">
          <mxGeometry width="50" height="50" relative="1" as="geometry">
            <mxPoint x="57" y="330" as="sourcePoint" />
            <mxPoint x="107" y="380" as="targetPoint" />
          </mxGeometry>
        </mxCell>
        <mxCell id="54UD-RVLt9mnvPX_JSWr-25" value="" style="endArrow=classic;html=1;rounded=0;exitX=0;exitY=0.5;exitDx=0;exitDy=0;entryX=1;entryY=0;entryDx=0;entryDy=0;" edge="1" parent="1" source="54UD-RVLt9mnvPX_JSWr-7" target="54UD-RVLt9mnvPX_JSWr-5">
          <mxGeometry width="50" height="50" relative="1" as="geometry">
            <mxPoint x="527" y="285" as="sourcePoint" />
            <mxPoint x="467" y="380" as="targetPoint" />
          </mxGeometry>
        </mxCell>
        <mxCell id="54UD-RVLt9mnvPX_JSWr-26" value="" style="endArrow=classic;html=1;rounded=0;exitX=0;exitY=0.5;exitDx=0;exitDy=0;entryX=1;entryY=0.25;entryDx=0;entryDy=0;" edge="1" parent="1" source="54UD-RVLt9mnvPX_JSWr-6" target="54UD-RVLt9mnvPX_JSWr-5">
          <mxGeometry width="50" height="50" relative="1" as="geometry">
            <mxPoint x="547" y="355" as="sourcePoint" />
            <mxPoint x="497" y="380" as="targetPoint" />
          </mxGeometry>
        </mxCell>
        <mxCell id="54UD-RVLt9mnvPX_JSWr-27" value="" style="endArrow=classic;html=1;rounded=0;exitX=0;exitY=0.5;exitDx=0;exitDy=0;entryX=1;entryY=0.75;entryDx=0;entryDy=0;" edge="1" parent="1" source="54UD-RVLt9mnvPX_JSWr-9" target="54UD-RVLt9mnvPX_JSWr-5">
          <mxGeometry width="50" height="50" relative="1" as="geometry">
            <mxPoint x="557" y="425" as="sourcePoint" />
            <mxPoint x="497" y="395" as="targetPoint" />
          </mxGeometry>
        </mxCell>
        <mxCell id="54UD-RVLt9mnvPX_JSWr-29" value="" style="endArrow=classic;html=1;rounded=0;exitX=0.5;exitY=0;exitDx=0;exitDy=0;entryX=0.75;entryY=1;entryDx=0;entryDy=0;" edge="1" parent="1" source="54UD-RVLt9mnvPX_JSWr-20" target="54UD-RVLt9mnvPX_JSWr-15">
          <mxGeometry width="50" height="50" relative="1" as="geometry">
            <mxPoint x="567" y="505" as="sourcePoint" />
            <mxPoint x="507" y="435" as="targetPoint" />
          </mxGeometry>
        </mxCell>
        <mxCell id="54UD-RVLt9mnvPX_JSWr-30" value="" style="endArrow=classic;html=1;rounded=0;exitX=0.5;exitY=0;exitDx=0;exitDy=0;entryX=0.25;entryY=1;entryDx=0;entryDy=0;" edge="1" parent="1" source="54UD-RVLt9mnvPX_JSWr-19" target="54UD-RVLt9mnvPX_JSWr-15">
          <mxGeometry width="50" height="50" relative="1" as="geometry">
            <mxPoint x="380" y="710" as="sourcePoint" />
            <mxPoint x="314" y="660" as="targetPoint" />
          </mxGeometry>
        </mxCell>
        <mxCell id="54UD-RVLt9mnvPX_JSWr-31" value="" style="endArrow=classic;html=1;rounded=0;exitX=0.5;exitY=0;exitDx=0;exitDy=0;entryX=0;entryY=1;entryDx=0;entryDy=0;" edge="1" parent="1" source="54UD-RVLt9mnvPX_JSWr-18" target="54UD-RVLt9mnvPX_JSWr-15">
          <mxGeometry width="50" height="50" relative="1" as="geometry">
            <mxPoint x="284" y="730" as="sourcePoint" />
            <mxPoint x="284" y="660" as="targetPoint" />
          </mxGeometry>
        </mxCell>
        <mxCell id="54UD-RVLt9mnvPX_JSWr-33" value="direccion" style="ellipse;whiteSpace=wrap;html=1;" vertex="1" parent="1">
          <mxGeometry x="367" y="710" width="100" height="50" as="geometry" />
        </mxCell>
        <mxCell id="54UD-RVLt9mnvPX_JSWr-34" value="Salario" style="ellipse;whiteSpace=wrap;html=1;" vertex="1" parent="1">
          <mxGeometry x="430" y="660" width="100" height="50" as="geometry" />
        </mxCell>
        <mxCell id="54UD-RVLt9mnvPX_JSWr-35" value="Poblacion" style="ellipse;whiteSpace=wrap;html=1;" vertex="1" parent="1">
          <mxGeometry x="417" y="600" width="100" height="50" as="geometry" />
        </mxCell>
        <mxCell id="54UD-RVLt9mnvPX_JSWr-36" value="" style="endArrow=classic;html=1;rounded=0;exitX=0.5;exitY=0;exitDx=0;exitDy=0;entryX=1;entryY=1;entryDx=0;entryDy=0;" edge="1" parent="1" source="54UD-RVLt9mnvPX_JSWr-33" target="54UD-RVLt9mnvPX_JSWr-15">
          <mxGeometry width="50" height="50" relative="1" as="geometry">
            <mxPoint x="327" y="730" as="sourcePoint" />
            <mxPoint x="344" y="660" as="targetPoint" />
          </mxGeometry>
        </mxCell>
        <mxCell id="54UD-RVLt9mnvPX_JSWr-37" value="" style="endArrow=classic;html=1;rounded=0;exitX=0;exitY=0.5;exitDx=0;exitDy=0;entryX=1;entryY=0.5;entryDx=0;entryDy=0;" edge="1" parent="1" source="54UD-RVLt9mnvPX_JSWr-34" target="54UD-RVLt9mnvPX_JSWr-15">
          <mxGeometry width="50" height="50" relative="1" as="geometry">
            <mxPoint x="427" y="720" as="sourcePoint" />
            <mxPoint x="344" y="645" as="targetPoint" />
          </mxGeometry>
        </mxCell>
        <mxCell id="54UD-RVLt9mnvPX_JSWr-38" value="" style="endArrow=classic;html=1;rounded=0;exitX=0;exitY=0.5;exitDx=0;exitDy=0;entryX=1;entryY=0.25;entryDx=0;entryDy=0;" edge="1" parent="1" source="54UD-RVLt9mnvPX_JSWr-35" target="54UD-RVLt9mnvPX_JSWr-15">
          <mxGeometry width="50" height="50" relative="1" as="geometry">
            <mxPoint x="440" y="695" as="sourcePoint" />
            <mxPoint x="344" y="630" as="targetPoint" />
          </mxGeometry>
        </mxCell>
        <mxCell id="54UD-RVLt9mnvPX_JSWr-39" value="direccion" style="ellipse;whiteSpace=wrap;html=1;" vertex="1" parent="1">
          <mxGeometry x="-60" y="460" width="100" height="50" as="geometry" />
        </mxCell>
        <mxCell id="54UD-RVLt9mnvPX_JSWr-48" style="edgeStyle=orthogonalEdgeStyle;rounded=0;orthogonalLoop=1;jettySize=auto;html=1;entryX=1;entryY=0.5;entryDx=0;entryDy=0;" edge="1" parent="1" source="54UD-RVLt9mnvPX_JSWr-41" target="54UD-RVLt9mnvPX_JSWr-47">
          <mxGeometry relative="1" as="geometry" />
        </mxCell>
        <mxCell id="54UD-RVLt9mnvPX_JSWr-41" value="Provincia" style="rounded=0;whiteSpace=wrap;html=1;fillColor=none;" vertex="1" parent="1">
          <mxGeometry x="214" y="200" width="120" height="60" as="geometry" />
        </mxCell>
        <mxCell id="54UD-RVLt9mnvPX_JSWr-42" value="" style="endArrow=classic;html=1;rounded=0;exitX=1;exitY=0.5;exitDx=0;exitDy=0;entryX=0;entryY=1;entryDx=0;entryDy=0;" edge="1" parent="1" source="54UD-RVLt9mnvPX_JSWr-39" target="54UD-RVLt9mnvPX_JSWr-3">
          <mxGeometry width="50" height="50" relative="1" as="geometry">
            <mxPoint x="30" y="425" as="sourcePoint" />
            <mxPoint x="77" y="425" as="targetPoint" />
          </mxGeometry>
        </mxCell>
        <mxCell id="54UD-RVLt9mnvPX_JSWr-43" value="&lt;u&gt;id_provincia&lt;/u&gt;" style="ellipse;whiteSpace=wrap;html=1;" vertex="1" parent="1">
          <mxGeometry x="360" y="150" width="100" height="50" as="geometry" />
        </mxCell>
        <mxCell id="54UD-RVLt9mnvPX_JSWr-44" value="nombre" style="ellipse;whiteSpace=wrap;html=1;" vertex="1" parent="1">
          <mxGeometry x="244" y="120" width="100" height="50" as="geometry" />
        </mxCell>
        <mxCell id="54UD-RVLt9mnvPX_JSWr-53" style="edgeStyle=orthogonalEdgeStyle;rounded=0;orthogonalLoop=1;jettySize=auto;html=1;" edge="1" parent="1" source="54UD-RVLt9mnvPX_JSWr-45" target="54UD-RVLt9mnvPX_JSWr-50">
          <mxGeometry relative="1" as="geometry" />
        </mxCell>
        <mxCell id="54UD-RVLt9mnvPX_JSWr-45" value="Camion" style="rounded=0;whiteSpace=wrap;html=1;" vertex="1" parent="1">
          <mxGeometry x="-120" y="590" width="120" height="60" as="geometry" />
        </mxCell>
        <mxCell id="54UD-RVLt9mnvPX_JSWr-46" value="&lt;u&gt;placa&lt;/u&gt;" style="ellipse;whiteSpace=wrap;html=1;" vertex="1" parent="1">
          <mxGeometry x="-250" y="530" width="100" height="50" as="geometry" />
        </mxCell>
        <mxCell id="54UD-RVLt9mnvPX_JSWr-49" style="edgeStyle=orthogonalEdgeStyle;rounded=0;orthogonalLoop=1;jettySize=auto;html=1;entryX=0.75;entryY=0;entryDx=0;entryDy=0;" edge="1" parent="1" source="54UD-RVLt9mnvPX_JSWr-47" target="54UD-RVLt9mnvPX_JSWr-3">
          <mxGeometry relative="1" as="geometry" />
        </mxCell>
        <mxCell id="54UD-RVLt9mnvPX_JSWr-47" value="Llega" style="rhombus;whiteSpace=wrap;html=1;" vertex="1" parent="1">
          <mxGeometry x="132" y="205" width="50" height="50" as="geometry" />
        </mxCell>
        <mxCell id="54UD-RVLt9mnvPX_JSWr-50" value="Conduce" style="rhombus;whiteSpace=wrap;html=1;" vertex="1" parent="1">
          <mxGeometry x="50" y="585" width="65" height="70" as="geometry" />
        </mxCell>
        <mxCell id="54UD-RVLt9mnvPX_JSWr-54" value="" style="endArrow=classic;html=1;rounded=0;exitX=1;exitY=0.5;exitDx=0;exitDy=0;entryX=0;entryY=0;entryDx=0;entryDy=0;" edge="1" parent="1" source="54UD-RVLt9mnvPX_JSWr-46" target="54UD-RVLt9mnvPX_JSWr-45">
          <mxGeometry width="50" height="50" relative="1" as="geometry">
            <mxPoint x="50" y="495" as="sourcePoint" />
            <mxPoint x="77" y="440" as="targetPoint" />
          </mxGeometry>
        </mxCell>
        <mxCell id="54UD-RVLt9mnvPX_JSWr-55" value="matricula" style="ellipse;whiteSpace=wrap;html=1;" vertex="1" parent="1">
          <mxGeometry x="-270" y="600" width="100" height="50" as="geometry" />
        </mxCell>
        <mxCell id="54UD-RVLt9mnvPX_JSWr-56" value="" style="endArrow=classic;html=1;rounded=0;exitX=1;exitY=0.5;exitDx=0;exitDy=0;entryX=0;entryY=0.25;entryDx=0;entryDy=0;" edge="1" parent="1" source="54UD-RVLt9mnvPX_JSWr-55" target="54UD-RVLt9mnvPX_JSWr-45">
          <mxGeometry width="50" height="50" relative="1" as="geometry">
            <mxPoint x="-140" y="565" as="sourcePoint" />
            <mxPoint x="-110" y="600" as="targetPoint" />
          </mxGeometry>
        </mxCell>
        <mxCell id="54UD-RVLt9mnvPX_JSWr-57" value="modelo" style="ellipse;whiteSpace=wrap;html=1;" vertex="1" parent="1">
          <mxGeometry x="-280" y="670" width="100" height="50" as="geometry" />
        </mxCell>
        <mxCell id="54UD-RVLt9mnvPX_JSWr-58" value="tipo" style="ellipse;whiteSpace=wrap;html=1;" vertex="1" parent="1">
          <mxGeometry x="-220" y="720" width="100" height="50" as="geometry" />
        </mxCell>
        <mxCell id="54UD-RVLt9mnvPX_JSWr-59" value="potencia" style="ellipse;whiteSpace=wrap;html=1;" vertex="1" parent="1">
          <mxGeometry x="-130" y="760" width="100" height="50" as="geometry" />
        </mxCell>
        <mxCell id="54UD-RVLt9mnvPX_JSWr-60" value="" style="endArrow=classic;html=1;rounded=0;exitX=1;exitY=0.5;exitDx=0;exitDy=0;entryX=0;entryY=0.75;entryDx=0;entryDy=0;" edge="1" parent="1" source="54UD-RVLt9mnvPX_JSWr-57" target="54UD-RVLt9mnvPX_JSWr-45">
          <mxGeometry width="50" height="50" relative="1" as="geometry">
            <mxPoint x="-160" y="635" as="sourcePoint" />
            <mxPoint x="-110" y="615" as="targetPoint" />
          </mxGeometry>
        </mxCell>
        <mxCell id="54UD-RVLt9mnvPX_JSWr-61" value="" style="endArrow=classic;html=1;rounded=0;exitX=0.5;exitY=0;exitDx=0;exitDy=0;entryX=0.108;entryY=1.033;entryDx=0;entryDy=0;entryPerimeter=0;" edge="1" parent="1" source="54UD-RVLt9mnvPX_JSWr-58" target="54UD-RVLt9mnvPX_JSWr-45">
          <mxGeometry width="50" height="50" relative="1" as="geometry">
            <mxPoint x="-170" y="705" as="sourcePoint" />
            <mxPoint x="-110" y="645" as="targetPoint" />
          </mxGeometry>
        </mxCell>
        <mxCell id="54UD-RVLt9mnvPX_JSWr-62" value="" style="endArrow=classic;html=1;rounded=0;exitX=0.5;exitY=0;exitDx=0;exitDy=0;entryX=0.5;entryY=1;entryDx=0;entryDy=0;" edge="1" parent="1" source="54UD-RVLt9mnvPX_JSWr-59" target="54UD-RVLt9mnvPX_JSWr-45">
          <mxGeometry width="50" height="50" relative="1" as="geometry">
            <mxPoint x="-160" y="730" as="sourcePoint" />
            <mxPoint x="-97" y="662" as="targetPoint" />
          </mxGeometry>
        </mxCell>
        <mxCell id="54UD-RVLt9mnvPX_JSWr-63" value="direccion" style="ellipse;whiteSpace=wrap;html=1;" vertex="1" parent="1">
          <mxGeometry x="114" y="120" width="100" height="50" as="geometry" />
        </mxCell>
        <mxCell id="54UD-RVLt9mnvPX_JSWr-64" value="" style="endArrow=classic;html=1;rounded=0;exitX=0;exitY=1;exitDx=0;exitDy=0;entryX=1;entryY=0.25;entryDx=0;entryDy=0;" edge="1" parent="1" source="54UD-RVLt9mnvPX_JSWr-43" target="54UD-RVLt9mnvPX_JSWr-41">
          <mxGeometry width="50" height="50" relative="1" as="geometry">
            <mxPoint x="527" y="285" as="sourcePoint" />
            <mxPoint x="467" y="380" as="targetPoint" />
          </mxGeometry>
        </mxCell>
        <mxCell id="54UD-RVLt9mnvPX_JSWr-65" value="" style="endArrow=classic;html=1;rounded=0;exitX=0.5;exitY=1;exitDx=0;exitDy=0;" edge="1" parent="1" source="54UD-RVLt9mnvPX_JSWr-44" target="54UD-RVLt9mnvPX_JSWr-41">
          <mxGeometry width="50" height="50" relative="1" as="geometry">
            <mxPoint x="385" y="203" as="sourcePoint" />
            <mxPoint x="344" y="225" as="targetPoint" />
          </mxGeometry>
        </mxCell>
        <mxCell id="54UD-RVLt9mnvPX_JSWr-66" value="" style="endArrow=classic;html=1;rounded=0;exitX=1;exitY=1;exitDx=0;exitDy=0;entryX=0.25;entryY=0;entryDx=0;entryDy=0;" edge="1" parent="1" source="54UD-RVLt9mnvPX_JSWr-63" target="54UD-RVLt9mnvPX_JSWr-41">
          <mxGeometry width="50" height="50" relative="1" as="geometry">
            <mxPoint x="304" y="180" as="sourcePoint" />
            <mxPoint x="314" y="210" as="targetPoint" />
          </mxGeometry>
        </mxCell>
        <mxCell id="54UD-RVLt9mnvPX_JSWr-67" value="1" style="text;html=1;align=center;verticalAlign=middle;whiteSpace=wrap;rounded=0;" vertex="1" parent="1">
          <mxGeometry y="590" width="20" height="30" as="geometry" />
        </mxCell>
        <mxCell id="54UD-RVLt9mnvPX_JSWr-68" value="1" style="text;html=1;align=center;verticalAlign=middle;whiteSpace=wrap;rounded=0;" vertex="1" parent="1">
          <mxGeometry x="194" y="590" width="20" height="30" as="geometry" />
        </mxCell>
        <mxCell id="54UD-RVLt9mnvPX_JSWr-69" value="1" style="text;html=1;align=center;verticalAlign=middle;whiteSpace=wrap;rounded=0;" vertex="1" parent="1">
          <mxGeometry x="247" y="560" width="20" height="30" as="geometry" />
        </mxCell>
        <mxCell id="54UD-RVLt9mnvPX_JSWr-70" value="N" style="text;html=1;align=center;verticalAlign=middle;whiteSpace=wrap;rounded=0;" vertex="1" parent="1">
          <mxGeometry x="130" y="430" width="20" height="30" as="geometry" />
        </mxCell>
        <mxCell id="54UD-RVLt9mnvPX_JSWr-71" value="N" style="text;html=1;align=center;verticalAlign=middle;whiteSpace=wrap;rounded=0;" vertex="1" parent="1">
          <mxGeometry x="187" y="370" width="20" height="30" as="geometry" />
        </mxCell>
        <mxCell id="54UD-RVLt9mnvPX_JSWr-72" value="1" style="text;html=1;align=center;verticalAlign=middle;whiteSpace=wrap;rounded=0;" vertex="1" parent="1">
          <mxGeometry x="347" y="370" width="20" height="30" as="geometry" />
        </mxCell>
        <mxCell id="54UD-RVLt9mnvPX_JSWr-73" value="1" style="text;html=1;align=center;verticalAlign=middle;whiteSpace=wrap;rounded=0;" vertex="1" parent="1">
          <mxGeometry x="194" y="230" width="20" height="30" as="geometry" />
        </mxCell>
        <mxCell id="54UD-RVLt9mnvPX_JSWr-74" value="N" style="text;html=1;align=center;verticalAlign=middle;whiteSpace=wrap;rounded=0;" vertex="1" parent="1">
          <mxGeometry x="162" y="340" width="20" height="30" as="geometry" />
        </mxCell>
      </root>
    </mxGraphModel>
  </diagram>
</mxfile>
